<mxfile host="app.diagrams.net" modified="2023-07-25T18:20:26.769Z" agent="Mozilla/5.0 (Windows NT 10.0; Win64; x64) AppleWebKit/537.36 (KHTML, like Gecko) Chrome/115.0.0.0 Safari/537.36 Edg/115.0.1901.183" etag="QGz9IzTMhxPa65gcKsoT" version="21.6.5" type="device">
  <diagram name="Página-1" id="3KC6voFuvcbb78ZpNwO1">
    <mxGraphModel dx="1050" dy="581" grid="1" gridSize="10" guides="1" tooltips="1" connect="1" arrows="1" fold="1" page="1" pageScale="1" pageWidth="827" pageHeight="1169" math="0" shadow="0">
      <root>
        <mxCell id="0" />
        <mxCell id="1" parent="0" />
        <mxCell id="j0HFmanKZ86CUpZfYPgK-1" value="Construa o Modelo Entidade Relacionamento considerando o seguinte cenário:&#xa;&#xa;&#xa;- uma empresa possui vários veículos&#xa;- um veículo possui marca(gm, ford, fiat), modelo(onix, fiesta, argo) e placa&#xa;- um cliente (cpf, nome) aluga um ou mais veículos" style="text;whiteSpace=wrap;" parent="1" vertex="1">
          <mxGeometry x="120" y="10" width="520" height="100" as="geometry" />
        </mxCell>
        <mxCell id="j0HFmanKZ86CUpZfYPgK-2" value="EMPRESA" style="html=1;whiteSpace=wrap;fillColor=#008a00;fontColor=#ffffff;strokeColor=#005700;" parent="1" vertex="1">
          <mxGeometry x="320" y="120" width="110" height="50" as="geometry" />
        </mxCell>
        <mxCell id="0wIgEY-jTWhRI0YMsKcy-2" style="edgeStyle=orthogonalEdgeStyle;rounded=0;orthogonalLoop=1;jettySize=auto;html=1;entryX=1;entryY=0.5;entryDx=0;entryDy=0;endArrow=none;endFill=0;" edge="1" parent="1" source="j0HFmanKZ86CUpZfYPgK-3" target="0wIgEY-jTWhRI0YMsKcy-1">
          <mxGeometry relative="1" as="geometry" />
        </mxCell>
        <mxCell id="0wIgEY-jTWhRI0YMsKcy-7" style="edgeStyle=orthogonalEdgeStyle;rounded=0;orthogonalLoop=1;jettySize=auto;html=1;entryX=0;entryY=0.5;entryDx=0;entryDy=0;endArrow=none;endFill=0;" edge="1" parent="1" source="j0HFmanKZ86CUpZfYPgK-3" target="0wIgEY-jTWhRI0YMsKcy-6">
          <mxGeometry relative="1" as="geometry">
            <mxPoint x="570" y="355" as="targetPoint" />
          </mxGeometry>
        </mxCell>
        <mxCell id="0wIgEY-jTWhRI0YMsKcy-13" style="rounded=0;orthogonalLoop=1;jettySize=auto;html=1;endArrow=none;endFill=0;edgeStyle=orthogonalEdgeStyle;curved=1;exitX=0;exitY=0;exitDx=0;exitDy=0;" edge="1" parent="1" source="j0HFmanKZ86CUpZfYPgK-3" target="j0HFmanKZ86CUpZfYPgK-18">
          <mxGeometry relative="1" as="geometry" />
        </mxCell>
        <mxCell id="j0HFmanKZ86CUpZfYPgK-3" value="VEICULO" style="html=1;whiteSpace=wrap;fillColor=#008a00;fontColor=#ffffff;strokeColor=#005700;" parent="1" vertex="1">
          <mxGeometry x="320" y="330" width="110" height="50" as="geometry" />
        </mxCell>
        <mxCell id="3XRkI4Bxzjqk7wCT-Cim-2" style="edgeStyle=orthogonalEdgeStyle;rounded=0;orthogonalLoop=1;jettySize=auto;html=1;endArrow=none;endFill=0;" parent="1" source="j0HFmanKZ86CUpZfYPgK-4" target="3XRkI4Bxzjqk7wCT-Cim-1" edge="1">
          <mxGeometry relative="1" as="geometry" />
        </mxCell>
        <mxCell id="3XRkI4Bxzjqk7wCT-Cim-4" style="edgeStyle=orthogonalEdgeStyle;rounded=0;orthogonalLoop=1;jettySize=auto;html=1;endArrow=none;endFill=0;" parent="1" source="j0HFmanKZ86CUpZfYPgK-4" target="3XRkI4Bxzjqk7wCT-Cim-3" edge="1">
          <mxGeometry relative="1" as="geometry" />
        </mxCell>
        <mxCell id="j0HFmanKZ86CUpZfYPgK-4" value="CLIENTE" style="html=1;whiteSpace=wrap;fillColor=#008a00;fontColor=#ffffff;strokeColor=#005700;" parent="1" vertex="1">
          <mxGeometry x="610" y="570" width="110" height="50" as="geometry" />
        </mxCell>
        <mxCell id="0wIgEY-jTWhRI0YMsKcy-16" style="edgeStyle=orthogonalEdgeStyle;rounded=0;orthogonalLoop=1;jettySize=auto;html=1;entryX=0.5;entryY=1;entryDx=0;entryDy=0;endArrow=none;endFill=0;" edge="1" parent="1" source="j0HFmanKZ86CUpZfYPgK-5" target="j0HFmanKZ86CUpZfYPgK-2">
          <mxGeometry relative="1" as="geometry" />
        </mxCell>
        <mxCell id="0wIgEY-jTWhRI0YMsKcy-17" style="edgeStyle=orthogonalEdgeStyle;rounded=0;orthogonalLoop=1;jettySize=auto;html=1;entryX=0.5;entryY=0;entryDx=0;entryDy=0;endArrow=none;endFill=0;" edge="1" parent="1" source="j0HFmanKZ86CUpZfYPgK-5" target="j0HFmanKZ86CUpZfYPgK-3">
          <mxGeometry relative="1" as="geometry" />
        </mxCell>
        <mxCell id="j0HFmanKZ86CUpZfYPgK-5" value="possui" style="rhombus;whiteSpace=wrap;html=1;fillColor=#d0cee2;strokeColor=#56517e;" parent="1" vertex="1">
          <mxGeometry x="335" y="210" width="80" height="80" as="geometry" />
        </mxCell>
        <mxCell id="j0HFmanKZ86CUpZfYPgK-18" value="placa" style="ellipse;whiteSpace=wrap;html=1;fillColor=#d80073;fontColor=#ffffff;strokeColor=#A50040;" parent="1" vertex="1">
          <mxGeometry x="230" y="225" width="80" height="50" as="geometry" />
        </mxCell>
        <mxCell id="3XRkI4Bxzjqk7wCT-Cim-1" value="cpf" style="ellipse;whiteSpace=wrap;html=1;fillColor=#d80073;fontColor=#ffffff;strokeColor=#A50040;" parent="1" vertex="1">
          <mxGeometry x="570" y="660" width="80" height="50" as="geometry" />
        </mxCell>
        <mxCell id="3XRkI4Bxzjqk7wCT-Cim-3" value="nome" style="ellipse;whiteSpace=wrap;html=1;fillColor=#d80073;fontColor=#ffffff;strokeColor=#A50040;" parent="1" vertex="1">
          <mxGeometry x="690" y="660" width="80" height="50" as="geometry" />
        </mxCell>
        <mxCell id="0wIgEY-jTWhRI0YMsKcy-4" style="edgeStyle=orthogonalEdgeStyle;rounded=0;orthogonalLoop=1;jettySize=auto;html=1;entryX=1;entryY=0.5;entryDx=0;entryDy=0;endArrow=none;endFill=0;" edge="1" parent="1" source="0wIgEY-jTWhRI0YMsKcy-1" target="0wIgEY-jTWhRI0YMsKcy-3">
          <mxGeometry relative="1" as="geometry" />
        </mxCell>
        <mxCell id="0wIgEY-jTWhRI0YMsKcy-1" value="possui" style="rhombus;whiteSpace=wrap;html=1;fillColor=#d0cee2;strokeColor=#56517e;" vertex="1" parent="1">
          <mxGeometry x="185" y="315" width="80" height="80" as="geometry" />
        </mxCell>
        <mxCell id="0wIgEY-jTWhRI0YMsKcy-3" value="MARCA" style="html=1;whiteSpace=wrap;fillColor=#008a00;fontColor=#ffffff;strokeColor=#005700;" vertex="1" parent="1">
          <mxGeometry y="330" width="110" height="50" as="geometry" />
        </mxCell>
        <mxCell id="0wIgEY-jTWhRI0YMsKcy-9" style="edgeStyle=orthogonalEdgeStyle;rounded=0;orthogonalLoop=1;jettySize=auto;html=1;entryX=0;entryY=0.5;entryDx=0;entryDy=0;endArrow=none;endFill=0;" edge="1" parent="1" source="0wIgEY-jTWhRI0YMsKcy-6" target="0wIgEY-jTWhRI0YMsKcy-8">
          <mxGeometry relative="1" as="geometry" />
        </mxCell>
        <mxCell id="0wIgEY-jTWhRI0YMsKcy-6" value="possui" style="rhombus;whiteSpace=wrap;html=1;fillColor=#d0cee2;strokeColor=#56517e;" vertex="1" parent="1">
          <mxGeometry x="530" y="315" width="80" height="80" as="geometry" />
        </mxCell>
        <mxCell id="0wIgEY-jTWhRI0YMsKcy-8" value="MODELO" style="html=1;whiteSpace=wrap;fillColor=#008a00;fontColor=#ffffff;strokeColor=#005700;" vertex="1" parent="1">
          <mxGeometry x="690" y="330" width="110" height="50" as="geometry" />
        </mxCell>
        <mxCell id="0wIgEY-jTWhRI0YMsKcy-32" style="edgeStyle=orthogonalEdgeStyle;rounded=0;orthogonalLoop=1;jettySize=auto;html=1;entryX=0;entryY=0.5;entryDx=0;entryDy=0;endArrow=none;endFill=0;" edge="1" parent="1" source="0wIgEY-jTWhRI0YMsKcy-10" target="0wIgEY-jTWhRI0YMsKcy-31">
          <mxGeometry relative="1" as="geometry" />
        </mxCell>
        <mxCell id="0wIgEY-jTWhRI0YMsKcy-10" value="ALUGUEL" style="html=1;whiteSpace=wrap;fillColor=#008a00;fontColor=#ffffff;strokeColor=#005700;" vertex="1" parent="1">
          <mxGeometry x="320" y="570" width="110" height="50" as="geometry" />
        </mxCell>
        <mxCell id="0wIgEY-jTWhRI0YMsKcy-12" style="edgeStyle=orthogonalEdgeStyle;rounded=0;orthogonalLoop=1;jettySize=auto;html=1;exitX=0.5;exitY=1;exitDx=0;exitDy=0;" edge="1" parent="1" source="3XRkI4Bxzjqk7wCT-Cim-1" target="3XRkI4Bxzjqk7wCT-Cim-1">
          <mxGeometry relative="1" as="geometry" />
        </mxCell>
        <mxCell id="0wIgEY-jTWhRI0YMsKcy-19" value="1" style="text;html=1;align=center;verticalAlign=middle;resizable=0;points=[];autosize=1;strokeColor=none;fillColor=none;" vertex="1" parent="1">
          <mxGeometry x="375" y="170" width="30" height="30" as="geometry" />
        </mxCell>
        <mxCell id="0wIgEY-jTWhRI0YMsKcy-20" value="n" style="text;html=1;align=center;verticalAlign=middle;resizable=0;points=[];autosize=1;strokeColor=none;fillColor=none;" vertex="1" parent="1">
          <mxGeometry x="375" y="300" width="30" height="30" as="geometry" />
        </mxCell>
        <mxCell id="0wIgEY-jTWhRI0YMsKcy-21" value="1" style="text;html=1;align=center;verticalAlign=middle;resizable=0;points=[];autosize=1;strokeColor=none;fillColor=none;" vertex="1" parent="1">
          <mxGeometry x="110" y="330" width="30" height="30" as="geometry" />
        </mxCell>
        <mxCell id="0wIgEY-jTWhRI0YMsKcy-22" value="n" style="text;html=1;align=center;verticalAlign=middle;resizable=0;points=[];autosize=1;strokeColor=none;fillColor=none;" vertex="1" parent="1">
          <mxGeometry x="430" y="330" width="30" height="30" as="geometry" />
        </mxCell>
        <mxCell id="0wIgEY-jTWhRI0YMsKcy-23" value="1" style="text;html=1;align=center;verticalAlign=middle;resizable=0;points=[];autosize=1;strokeColor=none;fillColor=none;" vertex="1" parent="1">
          <mxGeometry x="660" y="330" width="30" height="30" as="geometry" />
        </mxCell>
        <mxCell id="0wIgEY-jTWhRI0YMsKcy-24" value="n" style="text;html=1;align=center;verticalAlign=middle;resizable=0;points=[];autosize=1;strokeColor=none;fillColor=none;" vertex="1" parent="1">
          <mxGeometry x="290" y="330" width="30" height="30" as="geometry" />
        </mxCell>
        <mxCell id="0wIgEY-jTWhRI0YMsKcy-26" style="edgeStyle=orthogonalEdgeStyle;rounded=0;orthogonalLoop=1;jettySize=auto;html=1;entryX=0.5;entryY=1;entryDx=0;entryDy=0;endArrow=none;endFill=0;" edge="1" parent="1" source="0wIgEY-jTWhRI0YMsKcy-25" target="j0HFmanKZ86CUpZfYPgK-3">
          <mxGeometry relative="1" as="geometry" />
        </mxCell>
        <mxCell id="0wIgEY-jTWhRI0YMsKcy-27" style="edgeStyle=orthogonalEdgeStyle;rounded=0;orthogonalLoop=1;jettySize=auto;html=1;endArrow=none;endFill=0;" edge="1" parent="1" source="0wIgEY-jTWhRI0YMsKcy-25" target="0wIgEY-jTWhRI0YMsKcy-10">
          <mxGeometry relative="1" as="geometry" />
        </mxCell>
        <mxCell id="0wIgEY-jTWhRI0YMsKcy-25" value="possui" style="rhombus;whiteSpace=wrap;html=1;fillColor=#d0cee2;strokeColor=#56517e;" vertex="1" parent="1">
          <mxGeometry x="335" y="430" width="80" height="80" as="geometry" />
        </mxCell>
        <mxCell id="0wIgEY-jTWhRI0YMsKcy-28" value="1" style="text;html=1;align=center;verticalAlign=middle;resizable=0;points=[];autosize=1;strokeColor=none;fillColor=none;" vertex="1" parent="1">
          <mxGeometry x="375" y="380" width="30" height="30" as="geometry" />
        </mxCell>
        <mxCell id="0wIgEY-jTWhRI0YMsKcy-29" value="n" style="text;html=1;align=center;verticalAlign=middle;resizable=0;points=[];autosize=1;strokeColor=none;fillColor=none;" vertex="1" parent="1">
          <mxGeometry x="375" y="540" width="30" height="30" as="geometry" />
        </mxCell>
        <mxCell id="0wIgEY-jTWhRI0YMsKcy-34" style="edgeStyle=orthogonalEdgeStyle;rounded=0;orthogonalLoop=1;jettySize=auto;html=1;entryX=0;entryY=0.5;entryDx=0;entryDy=0;endArrow=none;endFill=0;" edge="1" parent="1" source="0wIgEY-jTWhRI0YMsKcy-31" target="j0HFmanKZ86CUpZfYPgK-4">
          <mxGeometry relative="1" as="geometry" />
        </mxCell>
        <mxCell id="0wIgEY-jTWhRI0YMsKcy-31" value="possui" style="rhombus;whiteSpace=wrap;html=1;fillColor=#d0cee2;strokeColor=#56517e;" vertex="1" parent="1">
          <mxGeometry x="490" y="562.5" width="70" height="65" as="geometry" />
        </mxCell>
        <mxCell id="0wIgEY-jTWhRI0YMsKcy-35" value="n" style="text;html=1;align=center;verticalAlign=middle;resizable=0;points=[];autosize=1;strokeColor=none;fillColor=none;" vertex="1" parent="1">
          <mxGeometry x="430" y="570" width="30" height="30" as="geometry" />
        </mxCell>
        <mxCell id="0wIgEY-jTWhRI0YMsKcy-36" value="1" style="text;html=1;align=center;verticalAlign=middle;resizable=0;points=[];autosize=1;strokeColor=none;fillColor=none;" vertex="1" parent="1">
          <mxGeometry x="580" y="570" width="30" height="30" as="geometry" />
        </mxCell>
      </root>
    </mxGraphModel>
  </diagram>
</mxfile>
